<svg width="5" height="27" viewBox="0 0 5 27" fill="none" xmlns="http://www.w3.org/2000/svg">
<path d="M2.49984 14.9583C3.30525 14.9583 3.95817 14.3053 3.95817 13.4999C3.95817 12.6945 3.30525 12.0416 2.49984 12.0416C1.69442 12.0416 1.0415 12.6945 1.0415 13.4999C1.0415 14.3053 1.69442 14.9583 2.49984 14.9583Z" stroke="white" stroke-width="2" stroke-linecap="round" stroke-linejoin="round"/>
<path d="M2.49984 4.74992C3.30525 4.74992 3.95817 4.097 3.95817 3.29159C3.95817 2.48617 3.30525 1.83325 2.49984 1.83325C1.69442 1.83325 1.0415 2.48617 1.0415 3.29159C1.0415 4.097 1.69442 4.74992 2.49984 4.74992Z" stroke="white" stroke-width="2" stroke-linecap="round" stroke-linejoin="round"/>
<path d="M2.49984 25.1666C3.30525 25.1666 3.95817 24.5137 3.95817 23.7083C3.95817 22.9028 3.30525 22.2499 2.49984 22.2499C1.69442 22.2499 1.0415 22.9028 1.0415 23.7083C1.0415 24.5137 1.69442 25.1666 2.49984 25.1666Z" stroke="white" stroke-width="2" stroke-linecap="round" stroke-linejoin="round"/>
</svg>
